<svg xmlns="http://www.w3.org/2000/svg" width="659" height="254" viewBox="0 0 659 254"><defs><style>.a{fill:#b3c7e9;}.b,.g{fill:#333;font-family:YuGothicUI-Bold, Yu Gothic UI;font-weight:700;}.b{font-size:28px;}.c{fill:#e3efd9;}.d{fill:#fbf3d3;}.e{fill:#ffcccb;}.f{fill:#fee793;}.g{font-size:22px;}.h{fill:#c5e0b5;}</style></defs><g transform="translate(-635 -1603)"><g transform="translate(14 141)"><circle class="a" cx="79.5" cy="79.5" r="79.5" transform="translate(621 1507)"/><text class="b" transform="translate(701 1598)"><tspan x="-28" y="0">健康</tspan></text></g><g transform="translate(181 141)"><circle class="c" cx="79.5" cy="79.5" r="79.5" transform="translate(621 1507)"/><text class="b" transform="translate(701 1598)"><tspan x="-42" y="0">亞健康</tspan></text></g><g transform="translate(347 141)"><circle class="d" cx="79.5" cy="79.5" r="79.5" transform="translate(621 1507)"/><text class="b" transform="translate(701 1598)"><tspan x="-28" y="0">疾病</tspan></text></g><g transform="translate(514 141)"><circle class="e" cx="79.5" cy="79.5" r="79.5" transform="translate(621 1507)"/><text class="b" transform="translate(701 1598)"><tspan x="-28" y="0">重症</tspan></text></g><rect class="f" width="321" height="17" transform="translate(973 1616)"/><text class="g" transform="translate(1191 1627)"><tspan x="-99" y="0">醫療體系檢測及治療</tspan></text><g transform="translate(-328 224)"><path class="h" d="M0,0H471.5V15H0Z" transform="translate(973 1618)"/><text class="g" transform="translate(1084 1627)"><tspan x="-99" y="0">居家檢測及數據管理</tspan></text></g></g></svg>