<svg xmlns="http://www.w3.org/2000/svg" xmlns:xlink="http://www.w3.org/1999/xlink" width="936" height="572.167" viewBox="0 0 936 572.167"><defs><style>.a{fill:url(#a);}.b,.c,.d,.e,.g{fill:#fff;}.b{font-size:28px;}.b,.f,.g{font-family:SegoeUI, Segoe UI;}.d{font-size:24px;}.d,.e,.h{font-family:YuGothicUI-Regular, Yu Gothic UI;}.e,.g{font-size:14px;}.i,.j,.m{fill:none;}.i,.j,.k{stroke:#8a8888;}.i,.j{stroke-width:2px;}.i{stroke-dasharray:3;}.k{fill:#8a8888;}.l{stroke:none;}</style><linearGradient id="a" x1="0.042" y1="0.065" x2="0.934" y2="0.905" gradientUnits="objectBoundingBox"><stop offset="0" stop-color="#8aadc4"/><stop offset="1" stop-color="#a9b6c2"/></linearGradient></defs><g transform="translate(-507 -625.917)"><g transform="translate(-21 -4)"><path class="a" d="M10,0H286a10,10,0,0,1,10,10V128.167a10,10,0,0,1-10,10H10a10,10,0,0,1-10-10V10A10,10,0,0,1,10,0Z" transform="translate(528 629.917)"/><text class="b" transform="translate(544 666)"><tspan x="0" y="0">01</tspan></text><g transform="translate(566 668)"><path class="c" d="M15.581,8v9.1H10.274A2.281,2.281,0,0,0,8,19.371v6.065a2.281,2.281,0,0,0,2.274,2.274h5.306v5.884a6.051,6.051,0,0,0,.445,9.779A11.389,11.389,0,0,0,8,54.242V55H30.742v-.758a11.389,11.389,0,0,0-8.026-10.869,6.05,6.05,0,0,0,2.521-3.534H55V8Zm37.9,1.516v4.548H17.1V9.516ZM9.516,25.435V19.371a.76.76,0,0,1,.758-.758H22.4a.76.76,0,0,1,.758.758v6.065a.76.76,0,0,1-.758.758H20.129v2.369l-3.563-2.369H10.274A.76.76,0,0,1,9.516,25.435ZM21.162,44.558l-1.791,1.791L17.58,44.558a10.153,10.153,0,0,1,1.791-.171A9.258,9.258,0,0,1,21.162,44.558Zm-6,.786c.246-.114.493-.227.749-.322l2.4,2.4-1.241,1.241Zm4.207,3.146,1.535,1.535-1.535,2.691-1.535-2.691Zm2.312.171-1.241-1.241,2.4-2.4a7.421,7.421,0,0,1,.749.322Zm-7.836-2.568,4.217,7.391H13.306V50.452H11.79v3.032H9.545A9.868,9.868,0,0,1,13.847,46.093ZM29.2,53.484H26.952V50.452H25.435v3.032H20.679L24.9,46.093a9.868,9.868,0,0,1,4.3,7.391ZM19.371,42.871a4.548,4.548,0,1,1,4.548-4.548A4.55,4.55,0,0,1,19.371,42.871Zm16.677-19.71A4.548,4.548,0,1,1,40.6,27.71,4.55,4.55,0,0,1,36.048,23.161ZM40.6,29.226a10.068,10.068,0,0,1,1.791.171L40.6,31.187,38.806,29.4A10.068,10.068,0,0,1,40.6,29.226Zm3.468.644c.284.1.559.227.834.36l-1.535,3.724-1.7-1.7Zm-6.936,0,2.388,2.388-1.7,1.7L36.285,30.23c.284-.133.559-.256.843-.36ZM34.978,31,37.3,36.636l3.3-3.3,3.3,3.3L46.216,31a9.865,9.865,0,0,1,4.2,7.325H48.177V35.29H46.661v3.032H34.532V35.29H33.016v3.032H30.78A9.865,9.865,0,0,1,34.978,31ZM51.93,38.323a11.375,11.375,0,0,0-7.988-10.111,6.065,6.065,0,1,0-6.69,0,11.4,11.4,0,0,0-7.988,10.111H25.435A6.059,6.059,0,0,0,17.1,32.7v-4.33l4.548,3.032v-3.7H22.4a2.281,2.281,0,0,0,2.274-2.274V19.371A2.281,2.281,0,0,0,22.4,17.1H17.1V15.581H53.484V38.323Z"/><path class="c" d="M120,40h1.516v1.516H120Z" transform="translate(-101.387 -28.968)"/><path class="c" d="M152,40h1.516v1.516H152Z" transform="translate(-130.355 -28.968)"/><path class="c" d="M184,40h1.516v1.516H184Z" transform="translate(-159.323 -28.968)"/><path class="c" d="M40,136H50.613v1.516H40Z" transform="translate(-28.968 -115.871)"/><path class="c" d="M40,168h7.581v1.516H40Z" transform="translate(-28.968 -144.839)"/><path class="c" d="M136,168h1.516v1.516H136Z" transform="translate(-115.871 -144.839)"/><path class="c" d="M296,456h7.581v1.516H296Z" transform="translate(-260.71 -405.548)"/><path class="c" d="M392,456h1.516v1.516H392Z" transform="translate(-347.613 -405.548)"/><path class="c" d="M296,424h10.613v1.516H296Z" transform="translate(-260.71 -376.581)"/><path class="c" d="M278.4,356.786h-5.837l-5.534-3.686v3.686h-.758A2.281,2.281,0,0,0,264,359.06v6.065a2.281,2.281,0,0,0,2.274,2.274H278.4a2.281,2.281,0,0,0,2.274-2.274V359.06A2.281,2.281,0,0,0,278.4,356.786Zm.758,8.339a.76.76,0,0,1-.758.758H266.274a.76.76,0,0,1-.758-.758V359.06a.76.76,0,0,1,.758-.758h2.274v-2.378l3.563,2.378H278.4a.76.76,0,0,1,.758.758Z" transform="translate(-231.742 -312.399)"/><path class="c" d="M456,104h1.516v1.516H456Z" transform="translate(-405.548 -86.903)"/><path class="c" d="M456,136h1.516v1.516H456Z" transform="translate(-405.548 -115.871)"/><path class="c" d="M456,168h1.516v1.516H456Z" transform="translate(-405.548 -144.839)"/><path class="c" d="M200,104h1.516v1.516H200Z" transform="translate(-173.806 -86.903)"/><path class="c" d="M232,104h1.516v1.516H232Z" transform="translate(-202.774 -86.903)"/><path class="c" d="M264,104h1.516v1.516H264Z" transform="translate(-231.742 -86.903)"/></g><g transform="translate(-1 2)"><text class="d" transform="translate(642 693)"><tspan x="0" y="0">服務諮詢</tspan></text><text class="e" transform="translate(642 720)"><tspan x="0" y="0">專線</tspan><tspan class="f" y="0">02-2999-8836</tspan></text></g></g><g transform="translate(-21 213)"><path class="a" d="M10,0H286a10,10,0,0,1,10,10V128.167a10,10,0,0,1-10,10H10a10,10,0,0,1-10-10V10A10,10,0,0,1,10,0Z" transform="translate(528 629.917)"/><text class="b" transform="translate(544 666)"><tspan x="0" y="0">04</tspan></text><g transform="translate(-1 2)"><text class="d" transform="translate(642 693)"><tspan x="0" y="0">支付款項</tspan></text><text class="g" transform="translate(642 720)"><tspan x="0" y="0">(</tspan><tspan class="h" y="0">匯款</tspan><tspan y="0">/</tspan><tspan class="h" y="0">支票</tspan><tspan y="0">)</tspan></text></g><g transform="translate(574 663.101)"><path class="c" d="M348.637,53.883h.062a.421.421,0,0,0,.113-.01,1.832,1.832,0,0,1,1.8,1.828.821.821,0,0,0,1.643,0,3.472,3.472,0,0,0-2.731-3.389v-.791a.821.821,0,1,0-1.643,0v.821a3.473,3.473,0,0,0,.893,6.829A1.828,1.828,0,1,1,346.943,61a.821.821,0,0,0-1.643,0,3.482,3.482,0,0,0,2.577,3.358v.9a.821.821,0,1,0,1.643,0V64.4a3.475,3.475,0,0,0-.739-6.87,1.825,1.825,0,0,1-.144-3.645Z" transform="translate(-309.843 -34.906)"/><path class="c" d="M38.979,11.8a11.779,11.779,0,0,0-10.967,7.7H7.66a.858.858,0,0,0-.821.852l-.2,28.772H.842a.808.808,0,0,0-.842.78v3.656A6.443,6.443,0,0,0,6.151,59.98V60H31.473V59.98c.205.01.288.021.421.021h.021a6.44,6.44,0,0,0,6.428-6.438V35.089c.205.01.421.021.637.021a11.655,11.655,0,0,0,0-23.309ZM6.459,58.357h0a4.823,4.823,0,0,1-4.826-4.806V50.769H25.414v2.772a6.444,6.444,0,0,0,1.9,4.559c.082.082.2.154.288.257ZM36.7,53.552a4.81,4.81,0,0,1-4.8,4.806h-.021a4.832,4.832,0,0,1-4.826-4.816V49.906a.756.756,0,0,0-.791-.78H8.287l.185-27.992H27.561a13,13,0,0,0-.226,2.28,11.727,11.727,0,0,0,.986,4.693H20.578a.821.821,0,0,0,0,1.643h8.636A11.561,11.561,0,0,0,36.7,34.884Zm2.28-20.085a10,10,0,1,1,10-10A10,10,0,0,1,38.979,33.466Z" transform="translate(0 0)"/><path class="c" d="M126.129,223.8a2.548,2.548,0,1,0,2.629,2.547A2.591,2.591,0,0,0,126.129,223.8Zm0,3.44a.907.907,0,1,1,.986-.9A.945.945,0,0,1,126.129,227.24Z" transform="translate(-110.818 -190.231)"/><path class="c" d="M192.4,241.322a.824.824,0,0,0,.821.821h10.936a.821.821,0,0,0,0-1.643H193.221A.824.824,0,0,0,192.4,241.322Z" transform="translate(-172.643 -205.216)"/><path class="c" d="M126.129,154.3a2.548,2.548,0,1,0,2.629,2.547A2.591,2.591,0,0,0,126.129,154.3Zm0,3.45a.907.907,0,1,1,.986-.9.945.945,0,0,1-.986.9Z" transform="translate(-110.818 -127.867)"/><path class="c" d="M126.129,293.2a2.548,2.548,0,1,0,2.629,2.547A2.591,2.591,0,0,0,126.129,293.2Zm0,3.44a.907.907,0,1,1,.986-.9A.945.945,0,0,1,126.129,296.64Z" transform="translate(-110.818 -252.505)"/><path class="c" d="M204.157,310.4H193.221a.821.821,0,0,0,0,1.643h10.936a.821.821,0,0,0,0-1.643Z" transform="translate(-172.643 -267.938)"/></g></g><g transform="translate(-21 430)"><path class="a" d="M10,0H286a10,10,0,0,1,10,10V128.167a10,10,0,0,1-10,10H10a10,10,0,0,1-10-10V10A10,10,0,0,1,10,0Z" transform="translate(528 629.917)"/><text class="b" transform="translate(544 666)"><tspan x="0" y="0">07</tspan></text><g transform="translate(-1 16)"><text class="d" transform="translate(642 693)"><tspan x="0" y="0">試驗執行</tspan></text></g><g transform="translate(574 660.35)"><path class="c" d="M3.908,57.41H24.23V55.845H3.908A2.342,2.342,0,0,1,1.565,53.5V19.108a2.342,2.342,0,0,1,2.343-2.343H38.3a2.342,2.342,0,0,1,2.343,2.343v17.98H42.2V19.108A3.913,3.913,0,0,0,38.3,15.2H3.908A3.916,3.916,0,0,0,0,19.108V53.5A3.917,3.917,0,0,0,3.908,57.41Z"/><path class="c" d="M62.3,77.6h1.565v1.565H62.3Z" transform="translate(-59.175 -59.27)"/><path class="c" d="M124.6,77.6h1.565v1.565H124.6Z" transform="translate(-118.349 -59.27)"/><path class="c" d="M187,77.6h1.565v1.565H187Z" transform="translate(-177.619 -59.27)"/><path class="c" d="M62.3,139.9H98.254v1.565H62.3Z" transform="translate(-59.175 -118.444)"/><path class="c" d="M69.942,206.8l-1.987,1.987a3.921,3.921,0,1,0,1.109,1.109l1.987-1.987ZM65.8,214.385a2.343,2.343,0,1,1,0-4.686,2.235,2.235,0,0,1,1,.236l-1.555,1.555,1.1,1.1,1.56-1.555a2.394,2.394,0,0,1,.236,1A2.347,2.347,0,0,1,65.8,214.385Z" transform="translate(-58.77 -181.988)"/><path class="c" d="M264.9,264.5h13.289v1.565H264.9Z" transform="translate(-251.611 -236.794)"/><path class="c" d="M264.9,326.9h5.473v1.56H264.9Z" transform="translate(-251.611 -296.063)"/><path class="c" d="M405.1,326.9h10.941v1.56H405.1Z" transform="translate(-384.778 -296.063)"/><path class="c" d="M560.9,264.5h7.816v1.565H560.9Z" transform="translate(-532.762 -236.794)"/><path class="c" d="M69.942,393.7l-1.987,1.987a3.921,3.921,0,1,0,1.109,1.109l1.987-1.987ZM65.8,401.29a2.343,2.343,0,1,1,0-4.686,2.235,2.235,0,0,1,1,.236L65.252,398.4l1.1,1.1,1.56-1.555a2.394,2.394,0,0,1,.236,1A2.347,2.347,0,0,1,65.8,401.29Z" transform="translate(-58.77 -359.512)"/><path class="c" d="M264.9,451.5h13.289v1.565H264.9Z" transform="translate(-251.611 -414.412)"/><path class="c" d="M264.9,513.8h5.473v1.565H264.9Z" transform="translate(-251.611 -473.587)"/><path class="c" d="M405.1,513.8h6.251v1.565H405.1Z" transform="translate(-384.778 -473.587)"/><path class="c" d="M560.9,451.5h3.125v1.565H560.9Z" transform="translate(-532.762 -414.412)"/><path class="c" d="M69.942,580.7l-1.987,1.987a3.921,3.921,0,1,0,1.109,1.109l1.987-1.987ZM65.8,588.29a2.343,2.343,0,1,1,0-4.685,2.235,2.235,0,0,1,1,.236L65.252,585.4l1.1,1.1,1.56-1.555a2.394,2.394,0,0,1,.236,1A2.35,2.35,0,0,1,65.8,588.29Z" transform="translate(-58.77 -537.131)"/><path class="c" d="M264.9,638.5h10.159v1.565H264.9Z" transform="translate(-251.611 -592.031)"/><path class="c" d="M264.9,700.8h5.473v1.565H264.9Z" transform="translate(-251.611 -651.206)"/><path class="c" d="M405.1,700.8h3.125v1.565H405.1Z" transform="translate(-384.778 -651.206)"/><path class="c" d="M510.324,506.148A11.724,11.724,0,1,0,498.6,494.424,11.722,11.722,0,0,0,510.324,506.148Zm0-21.888a10.159,10.159,0,1,1-10.164,10.159A10.158,10.158,0,0,1,510.324,484.26Z" transform="translate(-473.587 -444.047)"/><path class="c" d="M610.8,602.661l-1.4.7,1.565,3.125a.775.775,0,0,0,.572.421.977.977,0,0,0,.12.01.766.766,0,0,0,.552-.231l9.381-9.381-1.1-1.1-8.614,8.619Z" transform="translate(-578.829 -551.853)"/></g></g><g transform="translate(299 -4)"><path class="a" d="M10,0H286a10,10,0,0,1,10,10V128.167a10,10,0,0,1-10,10H10a10,10,0,0,1-10-10V10A10,10,0,0,1,10,0Z" transform="translate(528 629.917)"/><text class="b" transform="translate(544 666)"><tspan x="0" y="0">02</tspan></text><g transform="translate(-1 2)"><text class="d" transform="translate(642 693)"><tspan x="0" y="0">需求確認</tspan></text><text class="g" transform="translate(642 720)"><tspan x="0" y="0">(</tspan><tspan class="h" y="0">確認規格</tspan><tspan y="0">/</tspan><tspan class="h" y="0">給予專業建議</tspan><tspan y="0">)</tspan></text></g><g transform="translate(566 668)"><path class="c" d="M51.21,8H17.855a3.789,3.789,0,0,0-3.79,3.79V48.935H8.758A.76.76,0,0,0,8,49.694V51.21A3.789,3.789,0,0,0,11.79,55H42.871a3.789,3.789,0,0,0,3.79-3.79V47.561a12.117,12.117,0,0,0,0-23.026V14.065h7.581A.76.76,0,0,0,55,13.306V11.79A3.789,3.789,0,0,0,51.21,8ZM11.79,53.484A2.281,2.281,0,0,1,9.516,51.21v-.758H36.048v.758a3.791,3.791,0,0,0,.758,2.274ZM53.484,36.048A10.613,10.613,0,1,1,42.871,25.435,10.62,10.62,0,0,1,53.484,36.048ZM42.871,23.919a12,12,0,0,0-5.856,1.516H29.984v1.516h4.89a12.263,12.263,0,0,0-1.459,1.516h-5.7v1.516h4.672a12.512,12.512,0,0,0-.749,1.516H27.71v1.516h3.43a11.823,11.823,0,0,0-.4,3.032H27.71v1.516h3.136a13,13,0,0,0,.294,1.516H27.71V40.6h3.923a12.512,12.512,0,0,0,.749,1.516H27.71v1.516h5.7a12.084,12.084,0,0,0,11.731,4.33v3.25a2.281,2.281,0,0,1-2.274,2.274H39.839a2.281,2.281,0,0,1-2.274-2.274V49.694a.76.76,0,0,0-.758-.758H15.581V11.79a2.281,2.281,0,0,1,2.274-2.274H45.922a3.746,3.746,0,0,0-.777,2.274V24.137a12.017,12.017,0,0,0-2.274-.218ZM53.484,12.548H46.661V11.79a2.281,2.281,0,0,1,2.274-2.274H51.21a2.281,2.281,0,0,1,2.274,2.274Z"/><path class="c" d="M291.64,244.744a.761.761,0,0,0-1.071,0l-2.274,2.274a.761.761,0,0,0,0,1.071L293.6,253.4a.744.744,0,0,0,.54.218.784.784,0,0,0,.54-.218l9.855-9.855a.761.761,0,0,0,0-1.071l-2.274-2.274a.761.761,0,0,0-1.071,0l-7.059,7.05Zm10.073-2.937,1.2,1.2-8.784,8.784-4.236-4.236,1.2-1.2,2.492,2.492a.761.761,0,0,0,1.071,0Z" transform="translate(-253.536 -209.993)"/><path class="c" d="M112.339,72h-7.581a.76.76,0,0,0-.758.758v7.581a.76.76,0,0,0,.758.758h7.581a.76.76,0,0,0,.758-.758V72.758A.76.76,0,0,0,112.339,72Zm-.758,7.581h-6.065V73.516h6.065Z" transform="translate(-86.903 -57.935)"/><path class="c" d="M240,80h13.645v1.516H240Z" transform="translate(-210.016 -65.177)"/><path class="c" d="M216,112h15.919v1.516H216Z" transform="translate(-188.29 -94.145)"/><path class="c" d="M216,144h15.919v1.516H216Z" transform="translate(-188.29 -123.113)"/><path class="c" d="M112.339,184h-7.581a.76.76,0,0,0-.758.758v7.581a.76.76,0,0,0,.758.758h7.581a.76.76,0,0,0,.758-.758v-7.581A.76.76,0,0,0,112.339,184Zm-.758,7.581h-6.065v-6.065h6.065Z" transform="translate(-86.903 -159.323)"/><path class="c" d="M112.339,296h-7.581a.76.76,0,0,0-.758.758v7.581a.76.76,0,0,0,.758.758h7.581a.76.76,0,0,0,.758-.758v-7.581A.76.76,0,0,0,112.339,296Zm-.758,7.581h-6.065v-6.065h6.065Z" transform="translate(-86.903 -260.71)"/></g></g><g transform="translate(299 213)"><path class="a" d="M10,0H286a10,10,0,0,1,10,10V128.167a10,10,0,0,1-10,10H10a10,10,0,0,1-10-10V10A10,10,0,0,1,10,0Z" transform="translate(528 629.917)"/><text class="b" transform="translate(544 666)"><tspan x="0" y="0">05</tspan></text><g transform="translate(-13 2)"><text class="d" transform="translate(642 693)"><tspan x="0" y="0">提供樣品</tspan></text><text class="g" transform="translate(642 720)"><tspan x="0" y="0">(</tspan><tspan class="h" y="0">物質資料表</tspan><tspan y="0">&amp;</tspan><tspan class="h" y="0">測試申請單填寫</tspan><tspan y="0">)</tspan></text></g><g transform="translate(487.599 675.167)"><g transform="translate(88.4 32.864)"><path class="c" d="M114.756,354.341A38.743,38.743,0,0,0,104.031,353a38.955,38.955,0,0,0-10.753,1.341c-3.184.95-4.878,2.281-4.878,3.826v4.469c0,1.555,1.7,2.877,4.888,3.826a38.933,38.933,0,0,0,10.744,1.341,38.721,38.721,0,0,0,10.716-1.341c3.184-.95,4.841-2.281,4.841-3.826v-4.469C119.6,356.612,117.94,355.29,114.756,354.341Zm3.445,8.3c0,.987-2.058,1.955-3.845,2.5a37.3,37.3,0,0,1-10.325,1.275,37.923,37.923,0,0,1-10.353-1.275c-1.788-.531-3.882-1.508-3.882-2.5v-2.206A12.057,12.057,0,0,0,93.288,362a38.933,38.933,0,0,0,10.744,1.341A38.721,38.721,0,0,0,114.747,362a10.67,10.67,0,0,0,3.445-1.573v2.206ZM104.05,361.1a2.191,2.191,0,0,0,2.188-2.188,32.691,32.691,0,0,1,8.928,1.48c-.261.093-.531.186-.782.261a37.422,37.422,0,0,1-10.334,1.275,37.828,37.828,0,0,1-10.334-1.275c-.261-.074-.521-.168-.782-.261a32.4,32.4,0,0,1,8.928-1.48A2.191,2.191,0,0,0,104.05,361.1Zm-.791-2.188a5.646,5.646,0,0,1,.791-1.685,5.752,5.752,0,0,1,.791,1.685.791.791,0,1,1-1.583,0Zm13.667.7c-2.5-1.173-6.591-1.955-11.135-2.113a15.831,15.831,0,0,0-1.173-1.964l-.577-.829-.577.829a15.831,15.831,0,0,0-1.173,1.964c-4.525.158-8.63.94-11.116,2.113-.773-.438-1.322-.94-1.322-1.443,0-.987,2.085-1.955,3.864-2.5A37.422,37.422,0,0,1,104.05,354.4a37.828,37.828,0,0,1,10.334,1.275c1.788.531,3.864,1.508,3.864,2.5C118.248,358.67,117.7,359.172,116.926,359.61Z" transform="translate(-88.4 -353)"/></g><g transform="translate(98.836)"><path class="c" d="M210.834,12.662V8.286h-1.49V3.677a3.677,3.677,0,1,0-7.355,0V8.286H200.5v4.376h1.49v12.95l3.677,3.677,3.677-3.677V14.9h-1.4V25.034l-2.281,2.281-2.281-2.281V12.662Zm-7.448-8.984a2.281,2.281,0,0,1,4.562,0V8.286h-4.562Zm-1.49,7.588V9.682h7.541v1.583Z" transform="translate(-200.5)"/></g><g transform="translate(102.56 15.734)"><rect class="c" width="1.49" height="1.396"/></g><g transform="translate(102.56 18.713)"><rect class="c" width="1.49" height="1.396"/></g><g transform="translate(102.56 21.692)"><rect class="c" width="1.49" height="1.396"/></g></g></g><g transform="translate(299 430)"><path class="a" d="M10,0H286a10,10,0,0,1,10,10V128.167a10,10,0,0,1-10,10H10a10,10,0,0,1-10-10V10A10,10,0,0,1,10,0Z" transform="translate(528 629.917)"/><text class="b" transform="translate(544 666)"><tspan x="0" y="0">08</tspan></text><g transform="translate(542.893 659)"><path class="c" d="M63.867,25.03l-8.8-8.8A.81.81,0,0,0,54.5,16h-20a2.407,2.407,0,0,0-2.4,2.4v4.84a16.779,16.779,0,0,0,0,33.52V61.6A2.407,2.407,0,0,0,34.5,64H61.7a2.407,2.407,0,0,0,2.4-2.4v-36A.81.81,0,0,0,63.867,25.03Zm-8.57-6.3,6.07,6.07H56.1a.8.8,0,0,1-.8-.8ZM17.7,40A15.223,15.223,0,0,1,32.1,24.82V39.67L21.617,50.15A15.121,15.121,0,0,1,17.7,40Zm5.05,11.28L33.227,40.8h14.85a15.173,15.173,0,0,1-25.33,10.48ZM62.5,61.6a.8.8,0,0,1-.8.8H34.5a.8.8,0,0,1-.8-.8V56.76A16.807,16.807,0,0,0,49.7,40a.8.8,0,0,0-.8-.8H33.7V18.4a.8.8,0,0,1,.8-.8H53.7V24a2.407,2.407,0,0,0,2.4,2.4h6.4Z" transform="translate(0)"/><path class="c" d="M208.8,56a.8.8,0,0,0-.8.8v16a.8.8,0,0,0,.8.8h16a.8.8,0,0,0,.8-.8A16.824,16.824,0,0,0,208.8,56Zm.8,16V57.62A15.227,15.227,0,0,1,223.98,72Z" transform="translate(-172.703 -36)"/><path class="c" d="M327.2,320a7.2,7.2,0,1,0,7.2,7.2A7.2,7.2,0,0,0,327.2,320Zm0,12.8a5.6,5.6,0,1,1,5.6-5.6A5.6,5.6,0,0,1,327.2,332.8Z" transform="translate(-273.503 -273.6)"/><path class="c" d="M349.36,366.63l-1.83-1.83-1.13,1.13,2.4,2.4a.8.8,0,0,0,1.13,0l4.8-4.8-1.13-1.13Z" transform="translate(-297.263 -311.76)"/><path class="c" d="M400,152h6.4v1.6H400Z" transform="translate(-345.503 -122.4)"/><path class="c" d="M400,200h6.4v1.6H400Z" transform="translate(-345.503 -165.6)"/><path class="c" d="M400,248h6.4v1.6H400Z" transform="translate(-345.503 -208.8)"/></g><text class="d" transform="translate(629 709)"><tspan x="0" y="0">提供報告</tspan></text></g><g transform="translate(619 -4)"><path class="a" d="M10,0H286a10,10,0,0,1,10,10V128.167a10,10,0,0,1-10,10H10a10,10,0,0,1-10-10V10A10,10,0,0,1,10,0Z" transform="translate(528 629.917)"/><text class="b" transform="translate(544 666)"><tspan x="0" y="0">03</tspan></text><g transform="translate(574 675.507)"><path class="c" d="M31.6,30.887a.763.763,0,0,0-.756.758V45.481H8.571V39.165a.763.763,0,0,0-.756-.758h-6.3V1.516H30.845V15.353a.756.756,0,1,0,1.512,0V.758A.763.763,0,0,0,31.6,0H.756A.763.763,0,0,0,0,.758V39.235a.076.076,0,0,0,.01.051v.02a.144.144,0,0,0,.02.061v.01c.01.02.01.04.02.061v.01l.03.061a.01.01,0,0,0,.01.01c.01.02.02.03.03.051l.01.01a.139.139,0,0,0,.03.04.035.035,0,0,1,.01.02c.02.02.03.04.05.051L7.28,46.765c.02.02.04.03.05.051a.035.035,0,0,0,.02.01c.01.01.03.02.04.03l.01.01c.02.01.03.02.05.03a.01.01,0,0,1,.01.01l.06.03h.01a.143.143,0,0,0,.06.02H7.6c.02.01.04.01.06.02h.02a.436.436,0,0,1,.05.01H31.591a.763.763,0,0,0,.756-.758V31.645A.748.748,0,0,0,31.6,30.887ZM7.058,44.41,2.581,39.923H7.058Z"/><path class="c" d="M198.8,391.524a.762.762,0,0,0,0-1.524h-6.543a.762.762,0,0,0,0,1.524Z" transform="translate(-172.166 -350.622)"/><path class="c" d="M71.681,70H50.762a.762.762,0,0,0,0,1.524H71.681a.762.762,0,0,0,0-1.524Z" transform="translate(-44.92 -62.888)"/><path class="c" d="M71.681,110H50.762a.762.762,0,0,0,0,1.524H71.681a.762.762,0,0,0,0-1.524Z" transform="translate(-44.92 -98.884)"/><path class="c" d="M71.681,150H50.762a.762.762,0,0,0,0,1.524H71.681a.762.762,0,0,0,0-1.524Z" transform="translate(-44.92 -134.842)"/><path class="c" d="M72.443,190.762a.768.768,0,0,0-.762-.762H50.762a.762.762,0,0,0,0,1.524H71.681A.768.768,0,0,0,72.443,190.762Z" transform="translate(-44.92 -170.8)"/><path class="c" d="M68.826,230.762a.768.768,0,0,0-.762-.762h-17.3a.762.762,0,0,0,0,1.524h17.3A.768.768,0,0,0,68.826,230.762Z" transform="translate(-44.92 -206.758)"/><path class="c" d="M50.762,270a.762.762,0,0,0,0,1.524H61.217a.762.762,0,0,0,0-1.524Z" transform="translate(-44.92 -242.716)"/><path class="c" d="M191.489,81.918a3.528,3.528,0,0,0-4.958,0l-2.367,2.348h0L182.01,86.4h0l-15.4,15.279a.439.439,0,0,0-.061.071c0,.01-.01.01-.01.02s-.03.04-.041.06a.01.01,0,0,1-.01.01l-4.491,7.559a1.242,1.242,0,0,0,.081,1.693,1.3,1.3,0,0,0,.894.373,1.276,1.276,0,0,0,.813-.292l7.62-4.455a.01.01,0,0,0,.01-.01.213.213,0,0,0,.061-.04c.01,0,.01-.01.02-.01.02-.02.051-.04.071-.06l15.4-15.279h0l2.154-2.137h0l2.367-2.348A3.454,3.454,0,0,0,191.489,81.918Zm-5.06,7.8-2.8-2.782,1.077-1.068,2.8,2.782ZM171.017,105l-2.8-2.782,14.325-14.211,2.8,2.782Zm-4.4,2.762-1.189-1.179,1.859-3.145,2.489,2.469Zm-2.875,1.683.9-1.512.63.625Zm26.67-23.685-1.829,1.814-2.8-2.782,1.829-1.814a2,2,0,0,1,2.8,0,1.96,1.96,0,0,1,0,2.782Z" transform="translate(-145.517 -72.681)"/></g><text class="d" transform="translate(641 709)"><tspan x="0" y="0">合約簽訂</tspan></text></g><g transform="translate(619 213)"><path class="a" d="M10,0H286a10,10,0,0,1,10,10V128.167a10,10,0,0,1-10,10H10a10,10,0,0,1-10-10V10A10,10,0,0,1,10,0Z" transform="translate(528 629.917)"/><text class="b" transform="translate(544 666)"><tspan x="0" y="0">06</tspan></text><text class="d" transform="translate(641 709)"><tspan x="0" y="0">計畫審閱</tspan></text><g transform="translate(544.02 675)"><path class="c" d="M67.65,0H40.56a1.646,1.646,0,0,0-1.644,1.644V19.632L30.34,10.079a1.374,1.374,0,0,0-.968-.46,1.356,1.356,0,0,0-1.005.357L26.442,11.7a1.4,1.4,0,0,0-.1,1.973L38.456,27.166a1.279,1.279,0,0,0,.47.338V38.353H36.192a.7.7,0,1,0,0,1.409H55.57a.233.233,0,0,1,.235.235v1.447a6.528,6.528,0,0,0,2.508,5.148H33.393a5.157,5.157,0,0,1-5.157-5.148V40a.233.233,0,0,1,.235-.235h4.65a.7.7,0,1,0,0-1.409h-4.65A1.646,1.646,0,0,0,26.827,40v1.447A6.563,6.563,0,0,0,33.383,48H62.719a6.563,6.563,0,0,0,6.557-6.557V22.309a.7.7,0,0,0-1.409,0V41.443a5.155,5.155,0,0,1-5.148,5.148h-.376A5.155,5.155,0,0,1,57.2,41.443V40a1.646,1.646,0,0,0-1.644-1.644H40.325V28.011l2.01,1a1.178,1.178,0,0,0,.5.122,1.059,1.059,0,0,0,.742-.291,1.108,1.108,0,0,0,.3-1.221L42.8,24.7a.62.62,0,0,0,.009-.132,1.356,1.356,0,0,0-.357-1.005l-2.132-2.377V1.644a.233.233,0,0,1,.235-.235h27.09a.233.233,0,0,1,.235.235v9.168a.7.7,0,0,0,1.409,0V1.644A1.638,1.638,0,0,0,67.65,0ZM29.3,11.028l.836.93-1.916,1.719-.836-.93Zm-.132,3.692.432-.385,10.323,11.5-.432.385ZM40.982,26.771l.808-.733.517,1.39Zm-.019-1.888L30.64,13.395l.432-.385L41.4,24.507Z"/><path class="c" d="M472.7,140.2a.7.7,0,0,0-.7.7v5.373a.7.7,0,1,0,1.409,0V140.9A.7.7,0,0,0,472.7,140.2Z" transform="translate(-404.124 -127.031)"/><path class="c" d="M216,150.3a2.4,2.4,0,1,0,2.4,2.4A2.409,2.409,0,0,0,216,150.3Zm0,3.41a1,1,0,1,1,1-1A1,1,0,0,1,216,153.71Z" transform="translate(-169.997 -136.182)"/><path class="c" d="M280.5,171.409h3.447a.7.7,0,1,0,0-1.409H280.5a.7.7,0,0,0,0,1.409Z" transform="translate(-229.978 -154.031)"/><path class="c" d="M292.519,188H280.5a.7.7,0,0,0,0,1.409h12.014a.7.7,0,1,0,0-1.409Z" transform="translate(-229.978 -170.341)"/><path class="c" d="M280.514,150.4h0a.7.7,0,1,0,0-1.4H280.5a.7.7,0,0,0-.7.7A.722.722,0,0,0,280.514,150.4Z" transform="translate(-229.978 -135.004)"/><path class="c" d="M216,229.4a2.4,2.4,0,1,0,2.4,2.4A2.409,2.409,0,0,0,216,229.4Zm0,3.4a1,1,0,1,1,1-1A1,1,0,0,1,216,232.8Z" transform="translate(-169.997 -207.852)"/><path class="c" d="M280.5,250.509h3.447a.7.7,0,0,0,0-1.409H280.5a.7.7,0,0,0,0,1.409Z" transform="translate(-229.978 -225.701)"/><path class="c" d="M292.519,267.1H280.5a.7.7,0,1,0,0,1.409h12.014a.7.7,0,1,0,0-1.409Z" transform="translate(-229.978 -242.01)"/><path class="c" d="M280.514,229.4h0a.7.7,0,1,0,0-1.4H280.5a.7.7,0,0,0-.7.7A.716.716,0,0,0,280.514,229.4Z" transform="translate(-229.978 -206.583)"/><path class="c" d="M216,308.5a2.4,2.4,0,1,0,2.4,2.4A2.409,2.409,0,0,0,216,308.5Zm0,3.4a1,1,0,1,1,1-1A1,1,0,0,1,216,311.9Z" transform="translate(-169.997 -279.522)"/><path class="c" d="M280.5,329.609h3.447a.7.7,0,0,0,0-1.409H280.5a.7.7,0,0,0,0,1.409Z" transform="translate(-229.978 -297.371)"/><path class="c" d="M280.5,347.509h12.014a.7.7,0,1,0,0-1.409H280.5a.7.7,0,1,0,0,1.409Z" transform="translate(-229.978 -313.59)"/><path class="c" d="M280.514,308.5h0a.7.7,0,1,0,0-1.4H280.5a.7.7,0,0,0-.7.7A.716.716,0,0,0,280.514,308.5Z" transform="translate(-229.978 -278.253)"/><path class="c" d="M237.193,51.981V47.9a.71.71,0,0,0-.7-.7H217.5a.7.7,0,0,0-.7.7v4.077a.7.7,0,0,0,.7.7h18.984A.71.71,0,0,0,237.193,51.981Zm-1.409-.7H218.209V48.609h17.575Z" transform="translate(-172.896 -42.766)"/></g></g><g transform="translate(619 430)"><path class="a" d="M10,0H286a10,10,0,0,1,10,10V128.167a10,10,0,0,1-10,10H10a10,10,0,0,1-10-10V10A10,10,0,0,1,10,0Z" transform="translate(528 629.917)"/><text class="b" transform="translate(544 666)"><tspan x="0" y="0">09</tspan></text><text class="d" transform="translate(641 709)"><tspan x="0" y="0">結案歸檔</tspan></text><g transform="translate(573.799 674.55)"><path class="c" d="M38.6,15.5V2.675A2.683,2.683,0,0,0,35.927,0H2.875A2.683,2.683,0,0,0,.2,2.675V43.312a2.676,2.676,0,0,0,2.675,2.675H12.1a.716.716,0,1,0,0-1.433H2.865a1.239,1.239,0,0,1-1.242-1.242V2.675A1.239,1.239,0,0,1,2.865,1.433H35.917a1.239,1.239,0,0,1,1.242,1.242V14.95A17.416,17.416,0,0,0,20.136,44.544H15.427a.716.716,0,1,0,0,1.433H22A17.418,17.418,0,1,0,38.6,15.5ZM31.657,47.477A15.991,15.991,0,1,1,47.648,31.486,16.01,16.01,0,0,1,31.657,47.477Z"/><path class="c" d="M280.025,274.9a5.225,5.225,0,1,0,1.987,10.059.718.718,0,1,0-.544-1.328,3.7,3.7,0,0,1-1.442.287,3.783,3.783,0,1,1,3.449-2.207.72.72,0,0,0,1.309.6,5.229,5.229,0,0,0-4.757-7.413Z" transform="translate(-248.368 -248.64)"/><path class="c" d="M306.8,309.159A2.159,2.159,0,1,0,308.968,307a2.163,2.163,0,0,0-2.168,2.159Zm2.894,0a.726.726,0,1,1-.726-.726A.726.726,0,0,1,309.694,309.159Z" transform="translate(-277.312 -277.673)"/><path class="c" d="M230.881,41.6H218.816a.716.716,0,0,0,0,1.433h12.075a.716.716,0,1,0-.01-1.433Z" transform="translate(-197.085 -37.626)"/><path class="c" d="M275.382,72.7h-7.365a.716.716,0,0,0,0,1.433h7.365a.716.716,0,0,0,0-1.433Z" transform="translate(-241.585 -65.755)"/><path class="c" d="M41,51.082a2.057,2.057,0,0,0,2.054,2.054h9.3a2.054,2.054,0,0,0,0-4.108H49.894L54.5,44.5a1.8,1.8,0,0,0,.4-1.958,1.775,1.775,0,0,0-1.653-1.108h-.869V38.367A1.769,1.769,0,0,0,50.611,36.6H44.8a1.769,1.769,0,0,0-1.767,1.767v3.066h-.869A1.789,1.789,0,0,0,40.915,44.5l1.309,1.29a.716.716,0,0,0,1-1.022l-1.309-1.29a.359.359,0,0,1,.258-.611h1.586a.722.722,0,0,0,.716-.716V38.367a.338.338,0,0,1,.334-.334h5.8a.338.338,0,0,1,.334.334V42.15a.722.722,0,0,0,.716.716h1.576a.359.359,0,0,1,.258.611l-5.531,5.445a.358.358,0,0,1-.5,0L45.615,47.1a.716.716,0,0,0-1,1.022l.917.9H43.054A2.071,2.071,0,0,0,41,51.082Zm11.979,0a.62.62,0,0,1-.621.621h-9.3a.621.621,0,1,1,0-1.242h9.3A.62.62,0,0,1,52.98,51.082Z" transform="translate(-36.34 -33.104)"/></g></g><g transform="translate(3)"><line class="i" x2="63" transform="translate(763.25 695.5)"/><g transform="translate(124.75 -502)"><g class="j" transform="translate(702 1189)"><circle class="l" cx="8" cy="8" r="8"/><circle class="m" cx="8" cy="8" r="7"/></g><g class="k" transform="translate(707.037 1194.037)"><circle class="l" cx="2.713" cy="2.713" r="2.713"/><circle class="m" cx="2.713" cy="2.713" r="2.213"/></g></g></g><g transform="translate(3 217)"><line class="i" x2="63" transform="translate(763.25 695.5)"/><g transform="translate(124.75 -502)"><g class="j" transform="translate(702 1189)"><circle class="l" cx="8" cy="8" r="8"/><circle class="m" cx="8" cy="8" r="7"/></g><g class="k" transform="translate(707.037 1194.037)"><circle class="l" cx="2.713" cy="2.713" r="2.713"/><circle class="m" cx="2.713" cy="2.713" r="2.213"/></g></g></g><g transform="translate(3 434.001)"><line class="i" x2="63" transform="translate(763.25 695.5)"/><g transform="translate(124.75 -502)"><g class="j" transform="translate(702 1189)"><circle class="l" cx="8" cy="8" r="8"/><circle class="m" cx="8" cy="8" r="7"/></g><g class="k" transform="translate(707.037 1194.037)"><circle class="l" cx="2.713" cy="2.713" r="2.713"/><circle class="m" cx="2.713" cy="2.713" r="2.213"/></g></g></g><g transform="translate(324)"><line class="i" x2="63" transform="translate(763.25 695.5)"/><g transform="translate(124.75 -502)"><g class="j" transform="translate(702 1189)"><circle class="l" cx="8" cy="8" r="8"/><circle class="m" cx="8" cy="8" r="7"/></g><g class="k" transform="translate(707.037 1194.037)"><circle class="l" cx="2.713" cy="2.713" r="2.713"/><circle class="m" cx="2.713" cy="2.713" r="2.213"/></g></g></g><g transform="translate(324 217)"><line class="i" x2="63" transform="translate(763.25 695.5)"/><g transform="translate(124.75 -502)"><g class="j" transform="translate(702 1189)"><circle class="l" cx="8" cy="8" r="8"/><circle class="m" cx="8" cy="8" r="7"/></g><g class="k" transform="translate(707.037 1194.037)"><circle class="l" cx="2.713" cy="2.713" r="2.713"/><circle class="m" cx="2.713" cy="2.713" r="2.213"/></g></g></g><g transform="translate(324 434.001)"><line class="i" x2="63" transform="translate(763.25 695.5)"/><g transform="translate(124.75 -502)"><g class="j" transform="translate(702 1189)"><circle class="l" cx="8" cy="8" r="8"/><circle class="m" cx="8" cy="8" r="7"/></g><g class="k" transform="translate(707.037 1194.037)"><circle class="l" cx="2.713" cy="2.713" r="2.713"/><circle class="m" cx="2.713" cy="2.713" r="2.213"/></g></g></g><line class="i" y2="58" transform="translate(1295.5 746.5)"/><line class="i" x2="640" transform="translate(655.5 804.5)"/><line class="i" x2="0.5" y2="51" transform="translate(655 804.5)"/><g transform="translate(-54 -332.5)"><g class="j" transform="translate(702 1189)"><circle class="l" cx="8" cy="8" r="8"/><circle class="m" cx="8" cy="8" r="7"/></g><g class="k" transform="translate(707.037 1194.037)"><circle class="l" cx="2.713" cy="2.713" r="2.713"/><circle class="m" cx="2.713" cy="2.713" r="2.213"/></g></g><g transform="translate(-0.5 218)"><line class="i" y2="58" transform="translate(1295.5 746.5)"/><line class="i" x2="640" transform="translate(655.5 804.5)"/><line class="i" x2="0.5" y2="51" transform="translate(655 804.5)"/><g transform="translate(-54 -332.5)"><g class="j" transform="translate(702 1189)"><circle class="l" cx="8" cy="8" r="8"/><circle class="m" cx="8" cy="8" r="7"/></g><g class="k" transform="translate(707.037 1194.037)"><circle class="l" cx="2.713" cy="2.713" r="2.713"/><circle class="m" cx="2.713" cy="2.713" r="2.213"/></g></g></g></g></svg>