<?xml version="1.0" encoding="utf-8"?>
<!-- Generator: Adobe Illustrator 23.1.0, SVG Export Plug-In . SVG Version: 6.00 Build 0)  -->
<svg version="1.1" id="Layer_5" xmlns="http://www.w3.org/2000/svg" xmlns:xlink="http://www.w3.org/1999/xlink" x="0px" y="0px"
	 viewBox="0 0 512 512" style="enable-background:new 0 0 512 512;" xml:space="preserve">
<style type="text/css">
	.st0{fill:#FFFFFF;}
</style>
<path class="st0" d="M88,8v96H32c-13.2,0-24,10.8-24,24v64c0,13.2,10.8,24,24,24h56v62.1c-14.6,11.7-24,29.7-24,49.9
	c0,22.2,11.4,41.8,28.7,53.3C43.7,396.4,8,442.1,8,496v8h240v-8c0-53.9-35.7-99.6-84.7-114.7c13-8.6,22.6-21.8,26.6-37.3H504V8H88z
	 M488,24v48H104V24H488z M24,192v-64c0-4.4,3.6-8,8-8h128c4.4,0,8,3.6,8,8v64c0,4.4-3.6,8-8,8h-24v25l-37.6-25H32
	C27.6,200,24,196.4,24,192z M146.9,393.8L128,412.7l-18.9-18.9c6.1-1.1,12.5-1.8,18.9-1.8C134.5,392,140.8,392.6,146.9,393.8z
	 M83.6,402.1c2.6-1.2,5.2-2.4,7.9-3.4l25.3,25.3l-13.1,13.1L83.6,402.1z M128,435.3l16.2,16.2L128,479.9l-16.2-28.4L128,435.3z
	 M152.4,437.1L139.3,424l25.3-25.3c2.7,1,5.3,2.1,7.9,3.4L152.4,437.1z M69.7,410l44.5,78H64v-32H48v32H24.3
	C26.8,455.6,44.2,427.4,69.7,410z M231.7,488H208v-32h-16v32h-50.2l44.5-78C211.8,427.4,229.2,455.6,231.7,488L231.7,488z M128,376
	c-26.5,0-48-21.5-48-48s21.5-48,48-48s48,21.5,48,48S154.5,376,128,376z M304,168c0-26.5,21.5-48,48-48s48,21.5,48,48
	s-21.5,48-48,48S304,194.5,304,168z M352,232c6.5,0,12.8,0.7,18.9,1.8L352,252.7l-18.9-18.9C339.2,232.7,345.5,232,352,232z
	 M388.6,238.8c3,1.1,5.9,2.4,8.8,3.8l-16.2,39.3L363.3,264L388.6,238.8z M315.4,238.8l25.2,25.2l-17.9,17.9l-16.2-39.3
	C309.5,241.2,312.4,239.9,315.4,238.8L315.4,238.8z M292.7,250.7l24.5,59.5l34.8-34.8l34.8,34.8l24.5-59.5
	c24.9,17.4,41.8,45.3,44.3,77.3H432v-32h-16v32H288v-32h-16v32h-23.6C250.9,296,267.8,268.1,292.7,250.7L292.7,250.7z M471.6,328
	c-3.3-50.4-37.7-92.3-84.3-106.7c17.3-11.5,28.7-31.1,28.7-53.3c0-35.3-28.7-64-64-64s-64,28.7-64,64c0,22.2,11.4,41.8,28.7,53.3
	c-46.5,14.4-80.9,56.3-84.3,106.7H192c0-35.3-28.7-64-64-64c-8.5,0-16.6,1.7-24,4.7V223l48,32v-39h8c13.2,0,24-10.8,24-24v-64
	c0-13.2-10.8-24-24-24h-56V88h384v240H471.6z"/>
<path class="st0" d="M120,40h16v16h-16V40z"/>
<path class="st0" d="M152,40h16v16h-16V40z"/>
<path class="st0" d="M184,40h16v16h-16V40z"/>
<path class="st0" d="M40,136h112v16H40V136z"/>
<path class="st0" d="M40,168h80v16H40V168z"/>
<path class="st0" d="M136,168h16v16h-16V168z"/>
<path class="st0" d="M296,456h80v16h-80V456z"/>
<path class="st0" d="M392,456h16v16h-16V456z"/>
<path class="st0" d="M296,424h112v16H296V424z"/>
<path class="st0" d="M416,392h-61.6L296,353.1V392h-8c-13.2,0-24,10.8-24,24v64c0,13.2,10.8,24,24,24h128c13.2,0,24-10.8,24-24v-64
	C440,402.8,429.2,392,416,392z M424,480c0,4.4-3.6,8-8,8H288c-4.4,0-8-3.6-8-8v-64c0-4.4,3.6-8,8-8h24v-25.1l37.6,25.1H416
	c4.4,0,8,3.6,8,8V480z"/>
<path class="st0" d="M456,104h16v16h-16V104z"/>
<path class="st0" d="M456,136h16v16h-16V136z"/>
<path class="st0" d="M456,168h16v16h-16V168z"/>
<path class="st0" d="M200,104h16v16h-16V104z"/>
<path class="st0" d="M232,104h16v16h-16V104z"/>
<path class="st0" d="M264,104h16v16h-16V104z"/>
</svg>
