<svg id="Layer_5" enable-background="new 0 0 64 64" height="512" viewBox="0 0 64 64" width="512" xmlns="http://www.w3.org/2000/svg"><path d="m11 1v12h-7c-1.654 0-3 1.346-3 3v8c0 1.654 1.346 3 3 3h7v7.765c-1.826 1.467-3 3.715-3 6.235 0 2.78 1.427 5.231 3.585 6.665-6.123 1.89-10.585 7.6-10.585 14.335v1h30v-1c0-6.735-4.462-12.445-10.585-14.335 1.621-1.077 2.821-2.731 3.322-4.665h39.263v-42zm50 2v6h-48v-6zm-58 21v-8c0-.551.448-1 1-1h16c.552 0 1 .449 1 1v8c0 .551-.448 1-1 1h-3v3.131l-4.697-3.131h-8.303c-.552 0-1-.449-1-1zm15.365 25.221-2.365 2.365-2.365-2.365c.768-.141 1.557-.221 2.365-.221s1.597.08 2.365.221zm-7.921 1.041c.321-.153.648-.294.983-.421l3.159 3.159-1.64 1.64zm5.556 4.152 2.026 2.026-2.026 3.545-2.026-3.545zm3.054.226-1.64-1.64 3.159-3.159c.335.126.662.268.983.421zm-10.345-3.384 5.568 9.744h-6.277v-4h-2v4h-2.962c.31-4.051 2.491-7.578 5.671-9.744zm20.253 9.744h-2.962v-4h-2v4h-6.277l5.568-9.744c3.18 2.166 5.361 5.693 5.671 9.744zm-12.962-14c-3.309 0-6-2.691-6-6s2.691-6 6-6 6 2.691 6 6-2.691 6-6 6zm22-26c0-3.309 2.691-6 6-6s6 2.691 6 6-2.691 6-6 6-6-2.691-6-6zm6 8c.807 0 1.594.084 2.361.225l-2.361 2.361-2.361-2.361c.767-.141 1.554-.225 2.361-.225zm4.569.845c.376.142.742.3 1.1.475l-2.023 4.913-2.232-2.233zm-9.138 0 3.155 3.155-2.232 2.232-2.023-4.913c.358-.174.724-.332 1.1-.474zm-2.845 1.491 3.06 7.432 4.354-4.354 4.354 4.354 3.06-7.432c3.113 2.171 5.229 5.666 5.535 9.664h-2.949v-4h-2v4h-16v-4h-2v4h-2.949c.306-3.998 2.422-7.493 5.535-9.664zm22.363 9.664c-.418-6.294-4.718-11.54-10.534-13.335 2.158-1.434 3.585-3.885 3.585-6.665 0-4.411-3.589-8-8-8s-8 3.589-8 8c0 2.78 1.427 5.231 3.585 6.665-5.816 1.795-10.116 7.041-10.534 13.335h-5.051c0-4.411-3.589-8-8-8-1.061 0-2.073.212-3 .589v-5.72l6 4v-4.869h1c1.654 0 3-1.346 3-3v-8c0-1.654-1.346-3-3-3h-7v-2h48v30z"/><path d="m15 5h2v2h-2z"/><path d="m19 5h2v2h-2z"/><path d="m23 5h2v2h-2z"/><path d="m5 17h14v2h-14z"/><path d="m5 21h10v2h-10z"/><path d="m17 21h2v2h-2z"/><path d="m37 57h10v2h-10z"/><path d="m49 57h2v2h-2z"/><path d="m37 53h14v2h-14z"/><path d="m52 49h-7.697l-7.303-4.868v4.868h-1c-1.654 0-3 1.346-3 3v8c0 1.654 1.346 3 3 3h16c1.654 0 3-1.346 3-3v-8c0-1.654-1.346-3-3-3zm1 11c0 .552-.448 1-1 1h-16c-.552 0-1-.448-1-1v-8c0-.552.448-1 1-1h3v-3.132l4.697 3.132h8.303c.552 0 1 .448 1 1z"/><path d="m57 13h2v2h-2z"/><path d="m57 17h2v2h-2z"/><path d="m57 21h2v2h-2z"/><path d="m25 13h2v2h-2z"/><path d="m29 13h2v2h-2z"/><path d="m33 13h2v2h-2z"/></svg>