<?xml version="1.0" encoding="utf-8"?>
<!-- Generator: Adobe Illustrator 23.1.0, SVG Export Plug-In . SVG Version: 6.00 Build 0)  -->
<svg version="1.1" id="Capa_1" xmlns="http://www.w3.org/2000/svg" xmlns:xlink="http://www.w3.org/1999/xlink" x="0px" y="0px"
	 viewBox="0 0 512 512" style="enable-background:new 0 0 512 512;" xml:space="preserve">
<style type="text/css">
	.st0{fill:#FFFFFF;}
</style>
<g>
	<g>
		<path class="st0" d="M371.5,367.4c-30.9-9.3-71.7-14.4-115.2-14.4s-84.6,5.1-115.5,14.4c-34.2,10.2-52.4,24.5-52.4,41.1v48
			c0,16.7,18.3,30.9,52.5,41.1c30.9,9.3,72,14.4,115.4,14.4s84.2-5.1,115.1-14.4c34.2-10.2,52-24.5,52-41.1v-48
			C423.5,391.8,405.7,377.6,371.5,367.4z M408.5,456.5c0,10.6-22.1,21-41.3,26.8c-29.5,8.9-68.8,13.7-110.9,13.7
			s-81.6-4.9-111.2-13.7c-19.2-5.7-41.7-16.2-41.7-26.8v-23.7c9,6.4,21.5,12.1,37.5,16.9c30.9,9.3,72,14.4,115.4,14.4
			s84.2-5.1,115.1-14.4c16-4.8,29-10.5,37-16.9V456.5z M256.5,440c12.9,0,23.5-10.5,23.5-23.5c37.7,1.7,71.8,7.4,95.9,15.9
			c-2.8,1-5.7,2-8.4,2.8c-29.5,8.9-69,13.7-111,13.7s-81.4-4.9-111-13.7c-2.8-0.8-5.6-1.8-8.4-2.8c24.1-8.5,58.3-14.3,95.9-15.9
			C233,429.5,243.6,440,256.5,440z M248,416.5c0-2.5,3.6-10,8.5-18.1c4.9,8.2,8.5,15.6,8.5,18.1c0,4.7-3.8,8.5-8.5,8.5
			S248,421.2,248,416.5z M394.8,424c-26.8-12.6-70.8-21-119.6-22.7c-4.2-8.7-10.1-17.5-12.6-21.1l-6.2-8.9l-6.2,8.9
			c-2.5,3.6-8.4,12.4-12.6,21.1C189,403,144.9,411.4,118.2,424c-8.3-4.7-14.2-10.1-14.2-15.5c0-10.6,22.4-21,41.5-26.8
			c29.5-8.9,69-13.7,111-13.7s81.4,4.9,111,13.7c19.2,5.7,41.5,16.2,41.5,26.8C409,413.9,403.1,419.3,394.8,424z"/>
	</g>
</g>
<g>
	<g>
		<path class="st0" d="M311.5,136V89h-16V39.5C295.5,17.7,277.8,0,256,0s-39.5,17.7-39.5,39.5V89h-16v47h16v139.1l39.5,39.5
			l39.5-39.5V160h-15v108.9L256,293.4l-24.5-24.5V136H311.5z M231.5,39.5c0-13.5,11-24.5,24.5-24.5c13.5,0,24.5,11,24.5,24.5V89h-49
			V39.5z M215.5,121v-17h81v17H215.5z"/>
	</g>
</g>
<g>
	<g>
		<rect x="240.5" y="169" class="st0" width="16" height="15"/>
	</g>
</g>
<g>
	<g>
		<rect x="240.5" y="201" class="st0" width="16" height="15"/>
	</g>
</g>
<g>
	<g>
		<rect x="240.5" y="233" class="st0" width="16" height="15"/>
	</g>
</g>
</svg>
