<?xml version="1.0" encoding="iso-8859-1"?>
<!-- Generator: Adobe Illustrator 19.0.0, SVG Export Plug-In . SVG Version: 6.00 Build 0)  -->
<svg version="1.1" id="Capa_1" xmlns="http://www.w3.org/2000/svg" xmlns:xlink="http://www.w3.org/1999/xlink" x="0px" y="0px"
	 viewBox="0 0 512 512" style="enable-background:new 0 0 512 512;" xml:space="preserve">
<g>
	<g>
		<path d="M371.542,367.375C340.643,358.105,299.822,353,256.375,353c-43.447,0-84.58,5.105-115.48,14.375
			C106.741,377.621,88.5,391.843,88.5,408.5v48c0,16.657,18.304,30.879,52.458,41.125c30.899,9.27,71.97,14.375,115.417,14.375
			c43.447,0,84.205-5.105,115.104-14.375c34.154-10.246,52.021-24.468,52.021-41.125v-48
			C423.5,391.843,405.696,377.621,371.542,367.375z M408.5,456.5c0,10.557-22.115,21.012-41.269,26.758
			C337.691,492.119,298.402,497,256.375,497c-42.027,0-81.629-4.881-111.169-13.742c-19.153-5.746-41.706-16.201-41.706-26.758
			v-23.741c9,6.389,21.452,12.064,37.458,16.866c30.899,9.27,71.97,14.375,115.417,14.375s84.205-5.105,115.104-14.375
			c16.006-4.802,29.021-10.476,37.021-16.866V456.5z M256.5,440c12.949,0,23.485-10.527,23.499-23.473
			c37.654,1.689,71.779,7.416,95.929,15.949c-2.831,1.016-5.673,1.95-8.447,2.782C337.941,444.119,298.527,449,256.5,449
			c-42.027,0-81.441-4.881-110.981-13.742c-2.774-0.832-5.615-1.766-8.447-2.782c24.15-8.533,58.275-14.259,95.929-15.949
			C233.015,429.473,243.551,440,256.5,440z M248,416.501c0.019-2.518,3.59-9.962,8.502-18.15c4.91,8.184,8.479,15.627,8.498,18.15
			c0,4.686-3.814,8.499-8.5,8.499C251.814,425,248,421.186,248,416.501z M394.836,424.016c-26.764-12.613-70.839-21-119.585-22.689
			c-4.225-8.69-10.106-17.507-12.581-21.09l-6.171-8.934l-6.171,8.934c-2.475,3.583-8.356,12.4-12.581,21.09
			c-48.745,1.689-92.82,10.075-119.585,22.689C109.87,419.282,104,413.905,104,408.5c0-10.557,22.365-21.012,41.519-26.758
			C175.059,372.881,214.473,368,256.5,368s81.441,4.881,110.981,13.742C386.635,387.488,409,397.943,409,408.5
			C409,413.905,403.13,419.282,394.836,424.016z"/>
	</g>
</g>
<g>
	<g>
		<path d="M311.5,136V89h-16V39.5C295.5,17.72,277.78,0,256,0c-21.78,0-39.5,17.72-39.5,39.5V89h-16v47h16v139.106l39.5,39.5
			l39.5-39.5V160h-15v108.894l-24.5,24.5l-24.5-24.5V136H311.5z M231.5,39.5c0-13.51,10.99-24.5,24.5-24.5s24.5,10.99,24.5,24.5V89
			h-49V39.5z M215.5,121v-17h81v17H215.5z"/>
	</g>
</g>
<g>
	<g>
		<rect x="240.5" y="169" width="16" height="15"/>
	</g>
</g>
<g>
	<g>
		<rect x="240.5" y="201" width="16" height="15"/>
	</g>
</g>
<g>
	<g>
		<rect x="240.5" y="233" width="16" height="15"/>
	</g>
</g>
<g>
</g>
<g>
</g>
<g>
</g>
<g>
</g>
<g>
</g>
<g>
</g>
<g>
</g>
<g>
</g>
<g>
</g>
<g>
</g>
<g>
</g>
<g>
</g>
<g>
</g>
<g>
</g>
<g>
</g>
</svg>
