<svg id="Artboard_30" enable-background="new 0 0 64 64" height="512" viewBox="0 0 64 64" width="512" xmlns="http://www.w3.org/2000/svg"><g><path d="m58 1h-3-41c-2.757 0-5 2.243-5 5v49h-7c-.552 0-1 .447-1 1v2c0 2.757 2.243 5 5 5h36.999.001 4c2.757 0 5-2.243 5-5v-4.811c6.379-2.106 11-8.114 11-15.189s-4.621-13.083-11-15.189v-13.811h10c.552 0 1-.447 1-1v-2c0-2.757-2.243-5-5-5zm-52 60c-1.654 0-3-1.346-3-3v-1h35v1c0 1.125.374 2.164 1.002 3zm55-23c0 7.72-6.28 14-14 14s-14-6.28-14-14 6.28-14 14-14 14 6.28 14 14zm-14-16c-2.802 0-5.436.729-7.729 2h-9.271v2h6.453c-.696.612-1.342 1.277-1.923 2h-7.53v2h6.165c-.372.641-.705 1.307-.987 2h-5.178v2h4.527c-.332 1.281-.527 2.617-.527 4h-4v2h4.139c.086.682.219 1.347.388 2h-4.527v2h5.178c.282.693.615 1.359.987 2h-6.165v2h7.53c2.935 3.653 7.431 6 12.47 6 1.026 0 2.027-.106 3-.292v4.292c0 1.654-1.346 3-3 3h-4c-1.654 0-3-1.346-3-3v-2c0-.553-.448-1-1-1h-28v-49c0-1.654 1.346-3 3-3h37.026c-.635.838-1.026 1.87-1.026 3v16.292c-.973-.186-1.974-.292-3-.292zm14-15h-9v-1c0-1.654 1.346-3 3-3h3c1.654 0 3 1.346 3 3z"/><path d="m40.707 36.293c-.391-.391-1.023-.391-1.414 0l-3 3c-.391.391-.391 1.023 0 1.414l7 7c.195.195.451.293.707.293s.512-.098.707-.293l13-13c.391-.391.391-1.023 0-1.414l-3-3c-.391-.391-1.023-.391-1.414 0l-9.293 9.293zm13.293-3.879 1.586 1.586-11.586 11.586-5.586-5.586 1.586-1.586 3.293 3.293c.391.391 1.023.391 1.414 0z"/><path d="m24 9h-10c-.552 0-1 .447-1 1v10c0 .553.448 1 1 1h10c.552 0 1-.447 1-1v-10c0-.553-.448-1-1-1zm-1 10h-8v-8h8z"/><path d="m30 10h18v2h-18z"/><path d="m27 14h21v2h-21z"/><path d="m27 18h21v2h-21z"/><path d="m24 23h-10c-.552 0-1 .447-1 1v10c0 .553.448 1 1 1h10c.552 0 1-.447 1-1v-10c0-.553-.448-1-1-1zm-1 10h-8v-8h8z"/><path d="m24 37h-10c-.552 0-1 .447-1 1v10c0 .553.448 1 1 1h10c.552 0 1-.447 1-1v-10c0-.553-.448-1-1-1zm-1 10h-8v-8h8z"/></g></svg>