<?xml version="1.0" encoding="utf-8"?>
<!-- Generator: Adobe Illustrator 23.1.0, SVG Export Plug-In . SVG Version: 6.00 Build 0)  -->
<svg version="1.1" id="Artboard_30" xmlns="http://www.w3.org/2000/svg" xmlns:xlink="http://www.w3.org/1999/xlink" x="0px"
	 y="0px" viewBox="0 0 512 512" style="enable-background:new 0 0 512 512;" xml:space="preserve">
<style type="text/css">
	.st0{fill:#FFFFFF;}
</style>
<g>
	<path class="st0" d="M464,8h-24H112C89.9,8,72,25.9,72,48v392H16c-4.4,0-8,3.6-8,8v16c0,22.1,17.9,40,40,40h296h0h32
		c22.1,0,40-17.9,40-40v-38.5c51-16.8,88-64.9,88-121.5s-37-104.7-88-121.5V72h80c4.4,0,8-3.6,8-8V48C504,25.9,486.1,8,464,8z
		 M48,488c-13.2,0-24-10.8-24-24v-8h280v8c0,9,3,17.3,8,24H48z M488,304c0,61.8-50.2,112-112,112s-112-50.2-112-112
		s50.2-112,112-112S488,242.2,488,304z M376,176c-22.4,0-43.5,5.8-61.8,16H240v16h51.6c-5.6,4.9-10.7,10.2-15.4,16H216v16h49.3
		c-3,5.1-5.6,10.5-7.9,16H216v16h36.2c-2.7,10.2-4.2,20.9-4.2,32h-32v16h33.1c0.7,5.5,1.8,10.8,3.1,16H216v16h41.4
		c2.3,5.5,4.9,10.9,7.9,16H216v16h60.2c23.5,29.2,59.4,48,99.8,48c8.2,0,16.2-0.8,24-2.3V464c0,13.2-10.8,24-24,24h-32
		c-13.2,0-24-10.8-24-24v-16c0-4.4-3.6-8-8-8H88V48c0-13.2,10.8-24,24-24h296.2c-5.1,6.7-8.2,15-8.2,24v130.3
		C392.2,176.8,384.2,176,376,176L376,176z M488,56h-72v-8c0-13.2,10.8-24,24-24h24c13.2,0,24,10.8,24,24V56z"/>
	<path class="st0" d="M325.7,290.3c-3.1-3.1-8.2-3.1-11.3,0l-24,24c-3.1,3.1-3.1,8.2,0,11.3l56,56c1.6,1.6,3.6,2.3,5.7,2.3
		s4.1-0.8,5.7-2.3l104-104c3.1-3.1,3.1-8.2,0-11.3l-24-24c-3.1-3.1-8.2-3.1-11.3,0L352,316.7L325.7,290.3z M432,259.3l12.7,12.7
		L352,364.7L307.3,320l12.7-12.7l26.3,26.3c3.1,3.1,8.2,3.1,11.3,0L432,259.3z"/>
	<path class="st0" d="M192,72h-80c-4.4,0-8,3.6-8,8v80c0,4.4,3.6,8,8,8h80c4.4,0,8-3.6,8-8V80C200,75.6,196.4,72,192,72z M184,152
		h-64V88h64V152z"/>
	<path class="st0" d="M240,80h144v16H240V80z"/>
	<path class="st0" d="M216,112h168v16H216V112z"/>
	<path class="st0" d="M216,144h168v16H216V144z"/>
	<path class="st0" d="M192,184h-80c-4.4,0-8,3.6-8,8v80c0,4.4,3.6,8,8,8h80c4.4,0,8-3.6,8-8v-80C200,187.6,196.4,184,192,184z
		 M184,264h-64v-64h64V264z"/>
	<path class="st0" d="M192,296h-80c-4.4,0-8,3.6-8,8v80c0,4.4,3.6,8,8,8h80c4.4,0,8-3.6,8-8v-80C200,299.6,196.4,296,192,296z
		 M184,376h-64v-64h64V376z"/>
</g>
</svg>
