<svg id="Capa_1" enable-background="new 0 0 512 512" height="512" viewBox="0 0 512 512" width="512" xmlns="http://www.w3.org/2000/svg"><g><path d="m402.203 162.341v-134.321c0-15.45-12.57-28.02-28.021-28.02h-346.04c-15.45 0-28.02 12.57-28.02 28.02v425.4c0 15.45 12.569 28.02 28.02 28.02h96.61c4.143 0 7.5-3.358 7.5-7.5s-3.357-7.5-7.5-7.5h-96.61c-7.179 0-13.02-5.841-13.02-13.02v-425.4c0-7.179 5.841-13.02 13.02-13.02h346.04c7.18 0 13.021 5.841 13.021 13.02v128.546c-18.15-6.071-37.559-9.368-57.726-9.368-100.576 0-182.401 81.825-182.401 182.401 0 54.448 23.988 103.391 61.942 136.841h-49.325c-4.143 0-7.5 3.358-7.5 7.5s3.357 7.5 7.5 7.5h68.834c28.927 19.295 63.646 30.56 100.95 30.56 100.576 0 182.4-81.825 182.4-182.401 0-74.738-45.189-139.11-109.674-167.258zm-72.726 334.659c-92.306 0-167.401-75.096-167.401-167.401s75.096-167.401 167.401-167.401 167.4 75.096 167.4 167.401-75.095 167.401-167.4 167.401z"/><path d="m329.472 274.9c-30.156 0-54.689 24.539-54.689 54.7s24.533 54.7 54.689 54.7c7.195 0 14.184-1.374 20.772-4.083 3.831-1.576 5.659-5.958 4.084-9.789-1.576-3.831-5.96-5.659-9.789-4.084-4.77 1.962-9.839 2.957-15.067 2.957-21.885 0-39.689-17.809-39.689-39.7s17.805-39.7 39.689-39.7c21.891 0 39.7 17.81 39.7 39.7 0 5.804-1.218 11.384-3.619 16.587-1.736 3.761-.095 8.217 3.666 9.953 3.764 1.736 8.218.095 9.953-3.667 3.317-7.188 5-14.883 5-22.873 0-30.163-24.538-54.701-54.7-54.701z"/><path d="m306.837 329.599c0 12.483 10.156 22.64 22.64 22.64s22.64-10.156 22.64-22.64-10.156-22.64-22.64-22.64-22.64 10.157-22.64 22.64zm30.28 0c0 4.212-3.427 7.64-7.64 7.64s-7.64-3.427-7.64-7.64 3.427-7.64 7.64-7.64 7.64 3.428 7.64 7.64z"/><path d="m351.932 41.625h-126.365c-4.143 0-7.5 3.358-7.5 7.5s3.357 7.5 7.5 7.5h126.365c4.143 0 7.5-3.358 7.5-7.5s-3.357-7.5-7.5-7.5z"/><path d="m351.932 72.709h-77.149c-4.143 0-7.5 3.358-7.5 7.5s3.357 7.5 7.5 7.5h77.149c4.143 0 7.5-3.358 7.5-7.5s-3.357-7.5-7.5-7.5z"/><path d="m46.898 188.206c0 11.843 9.635 21.479 21.479 21.479h97.429c11.844 0 21.479-9.635 21.479-21.479s-9.635-21.479-21.479-21.479h-25.804l48.164-47.423c5.44-5.357 7.085-13.386 4.189-20.453-2.895-7.065-9.698-11.631-17.333-11.631h-9.05v-32.07c0-10.217-8.308-18.53-18.52-18.53h-60.72c-10.212 0-18.521 8.312-18.521 18.53v32.07h-9.06c-7.635 0-14.438 4.565-17.333 11.631-2.896 7.067-1.251 15.095 4.192 20.455l13.721 13.5c2.95 2.904 7.7 2.867 10.605-.086s2.867-7.701-.086-10.606l-13.718-13.498c-1.611-1.587-1.121-3.381-.835-4.079.285-.697 1.193-2.317 3.453-2.317h16.56c4.143 0 7.5-3.358 7.5-7.5v-39.57c0-1.946 1.579-3.53 3.521-3.53h60.72c1.94 0 3.52 1.583 3.52 3.53v39.57c0 4.142 3.357 7.5 7.5 7.5h16.55c2.26 0 3.168 1.621 3.453 2.317.286.698.776 2.492-.834 4.078l-57.929 57.038c-1.444 1.421-3.794 1.422-5.238.001l-19.36-19.06c-2.952-2.905-7.7-2.869-10.606.083s-2.869 7.7.083 10.606l9.591 9.442h-25.805c-11.843.002-21.478 9.637-21.478 21.481zm125.386 0c0 3.572-2.906 6.479-6.479 6.479h-97.429c-3.572 0-6.479-2.906-6.479-6.479s2.906-6.479 6.479-6.479h97.429c3.572 0 6.479 2.906 6.479 6.479z"/></g></svg>