<?xml version="1.0" encoding="utf-8"?>
<!-- Generator: Adobe Illustrator 23.1.0, SVG Export Plug-In . SVG Version: 6.00 Build 0)  -->
<svg version="1.1" id="Capa_1" xmlns="http://www.w3.org/2000/svg" xmlns:xlink="http://www.w3.org/1999/xlink" x="0px" y="0px"
	 viewBox="0 0 512 512" style="enable-background:new 0 0 512 512;" xml:space="preserve">
<style type="text/css">
	.st0{fill:#FFFFFF;}
</style>
<g>
	<path class="st0" d="M402.2,162.3V28c0-15.4-12.6-28-28-28h-346c-15.4,0-28,12.6-28,28v425.4c0,15.5,12.6,28,28,28h96.6
		c4.1,0,7.5-3.4,7.5-7.5s-3.4-7.5-7.5-7.5H28.1c-7.2,0-13-5.8-13-13V28c0-7.2,5.8-13,13-13h346c7.2,0,13,5.8,13,13v128.5
		c-18.1-6.1-37.6-9.4-57.7-9.4c-100.6,0-182.4,81.8-182.4,182.4c0,54.4,24,103.4,61.9,136.8h-49.3c-4.1,0-7.5,3.4-7.5,7.5
		s3.4,7.5,7.5,7.5h68.8c28.9,19.3,63.6,30.6,100.9,30.6c100.6,0,182.4-81.8,182.4-182.4C511.9,254.9,466.7,190.5,402.2,162.3
		L402.2,162.3z M329.5,497c-92.3,0-167.4-75.1-167.4-167.4s75.1-167.4,167.4-167.4s167.4,75.1,167.4,167.4S421.8,497,329.5,497z"/>
	<path class="st0" d="M329.5,274.9c-30.2,0-54.7,24.5-54.7,54.7s24.5,54.7,54.7,54.7c7.2,0,14.2-1.4,20.8-4.1c3.8-1.6,5.7-6,4.1-9.8
		c-1.6-3.8-6-5.7-9.8-4.1c-4.8,2-9.8,3-15.1,3c-21.9,0-39.7-17.8-39.7-39.7s17.8-39.7,39.7-39.7c21.9,0,39.7,17.8,39.7,39.7
		c0,5.8-1.2,11.4-3.6,16.6c-1.7,3.8-0.1,8.2,3.7,10c3.8,1.7,8.2,0.1,10-3.7c3.3-7.2,5-14.9,5-22.9
		C384.2,299.4,359.6,274.9,329.5,274.9L329.5,274.9z"/>
	<path class="st0" d="M306.8,329.6c0,12.5,10.2,22.6,22.6,22.6s22.6-10.2,22.6-22.6S342,307,329.5,307S306.8,317.1,306.8,329.6
		L306.8,329.6z M337.1,329.6c0,4.2-3.4,7.6-7.6,7.6s-7.6-3.4-7.6-7.6s3.4-7.6,7.6-7.6S337.1,325.4,337.1,329.6z"/>
	<path class="st0" d="M351.9,41.6H225.6c-4.1,0-7.5,3.4-7.5,7.5s3.4,7.5,7.5,7.5h126.4c4.1,0,7.5-3.4,7.5-7.5S356.1,41.6,351.9,41.6
		z"/>
	<path class="st0" d="M351.9,72.7h-77.1c-4.1,0-7.5,3.4-7.5,7.5s3.4,7.5,7.5,7.5h77.1c4.1,0,7.5-3.4,7.5-7.5S356.1,72.7,351.9,72.7z
		"/>
	<path class="st0" d="M46.9,188.2c0,11.8,9.6,21.5,21.5,21.5h97.4c11.8,0,21.5-9.6,21.5-21.5s-9.6-21.5-21.5-21.5H140l48.2-47.4
		c5.4-5.4,7.1-13.4,4.2-20.5c-2.9-7.1-9.7-11.6-17.3-11.6H166V55.1c0-10.2-8.3-18.5-18.5-18.5H86.7c-10.2,0-18.5,8.3-18.5,18.5v32.1
		h-9.1c-7.6,0-14.4,4.6-17.3,11.6c-2.9,7.1-1.3,15.1,4.2,20.5l13.7,13.5c3,2.9,7.7,2.9,10.6-0.1s2.9-7.7-0.1-10.6l-13.7-13.5
		c-1.6-1.6-1.1-3.4-0.8-4.1c0.3-0.7,1.2-2.3,3.5-2.3h16.6c4.1,0,7.5-3.4,7.5-7.5V55.1c0-1.9,1.6-3.5,3.5-3.5h60.7
		c1.9,0,3.5,1.6,3.5,3.5v39.6c0,4.1,3.4,7.5,7.5,7.5H175c2.3,0,3.2,1.6,3.5,2.3c0.3,0.7,0.8,2.5-0.8,4.1l-57.9,57
		c-1.4,1.4-3.8,1.4-5.2,0l-19.4-19.1c-3-2.9-7.7-2.9-10.6,0.1s-2.9,7.7,0.1,10.6l9.6,9.4H68.4C56.5,166.7,46.9,176.4,46.9,188.2
		L46.9,188.2z M172.3,188.2c0,3.6-2.9,6.5-6.5,6.5H68.4c-3.6,0-6.5-2.9-6.5-6.5s2.9-6.5,6.5-6.5h97.4
		C169.4,181.7,172.3,184.6,172.3,188.2z"/>
</g>
</svg>
