<?xml version="1.0" encoding="utf-8"?>
<!-- Generator: Adobe Illustrator 23.1.0, SVG Export Plug-In . SVG Version: 6.00 Build 0)  -->
<svg version="1.1" id="圖層_1" xmlns="http://www.w3.org/2000/svg" xmlns:xlink="http://www.w3.org/1999/xlink" x="0px" y="0px"
	 viewBox="0 0 511 511" style="enable-background:new 0 0 511 511;" xml:space="preserve">
<style type="text/css">
	.st0{fill:#FFFFFF;}
</style>
<path class="st0" d="M469.6,0H181.2c-9.6,0-17.5,7.8-17.5,17.5V209L72.4,107.3c-2.7-3-6.3-4.7-10.3-4.9c-4-0.2-7.8,1.1-10.7,3.8
	l-20.5,18.4c-6.1,5.5-6.6,14.9-1.1,21l129,143.6c1.4,1.6,3.1,2.8,5,3.6v115.5h-29.1c-4.1,0-7.5,3.4-7.5,7.5c0,4.1,3.3,7.5,7.5,7.5
	H341c1.4,0,2.5,1.1,2.5,2.5v15.4c0,22.2,10.4,42,26.7,54.8H104.9C74.6,496,50,471.4,50,441.2v-15.4c0-1.4,1.1-2.5,2.5-2.5H102
	c4.1,0,7.5-3.4,7.5-7.5c0-4.1-3.4-7.5-7.5-7.5H52.5c-9.6,0-17.5,7.8-17.5,17.5v15.4c0,38.5,31.3,69.8,69.8,69.8h312.3
	c38.5,0,69.8-31.3,69.8-69.8V237.5c0-4.1-3.3-7.5-7.5-7.5c-4.1,0-7.5,3.4-7.5,7.5v203.7c0,30.2-24.6,54.8-54.8,54.8h-4
	c-30.2,0-54.8-24.6-54.8-54.8v-15.4c0-9.6-7.8-17.5-17.5-17.5H178.7V298.2l21.4,10.6c1.7,0.8,3.5,1.3,5.3,1.3c2.9,0,5.7-1,7.9-3.1
	c3.7-3.3,4.9-8.4,3.2-13L205,263c0.1-0.5,0.1-0.9,0.1-1.4c0.2-4-1.1-7.8-3.8-10.7l-22.7-25.3V17.5c0-1.4,1.1-2.5,2.5-2.5h288.4
	c1.4,0,2.5,1.1,2.5,2.5v97.6c0,4.1,3.3,7.5,7.5,7.5c4.1,0,7.5-3.3,7.5-7.5V17.5C487,7.8,479.2,0,469.6,0z M61.3,117.4l8.9,9.9
	l-20.4,18.3l-8.9-9.9L61.3,117.4z M59.9,156.7l4.6-4.1L174.4,275l-4.6,4.1L59.9,156.7z M185.7,285l8.6-7.8l5.5,14.8L185.7,285z
	 M185.5,264.9L75.6,142.6l4.6-4.1l109.9,122.4L185.5,264.9z"/>
<path class="st0" d="M479.5,140.2c-4.1,0-7.5,3.3-7.5,7.5v57.2c0,4.1,3.4,7.5,7.5,7.5c4.1,0,7.5-3.3,7.5-7.5v-57.2
	C487,143.5,483.7,140.2,479.5,140.2z"/>
<path class="st0" d="M239.2,150.3c-14.1,0-25.6,11.5-25.6,25.6c0,14.1,11.5,25.6,25.6,25.6c14.1,0,25.6-11.5,25.6-25.6
	C264.8,161.8,253.3,150.3,239.2,150.3z M239.2,186.6c-5.9,0-10.6-4.8-10.6-10.6s4.8-10.6,10.6-10.6s10.6,4.8,10.6,10.6
	S245.1,186.6,239.2,186.6z"/>
<path class="st0" d="M287.3,185H324c4.1,0,7.5-3.4,7.5-7.5s-3.4-7.5-7.5-7.5h-36.7c-4.1,0-7.5,3.4-7.5,7.5S283.2,185,287.3,185z"/>
<path class="st0" d="M415.2,188H287.3c-4.1,0-7.5,3.3-7.5,7.5c0,4.1,3.4,7.5,7.5,7.5h127.9c4.1,0,7.5-3.4,7.5-7.5
	C422.7,191.3,419.3,188,415.2,188z"/>
<path class="st0" d="M287.4,163.9L287.4,163.9c4.2,0,7.5-3.4,7.5-7.5c0-4.1-3.4-7.4-7.5-7.4c0,0,0,0-0.1,0h-0.1
	c-4.1,0-7.4,3.4-7.4,7.5C279.9,160.5,283.3,163.9,287.4,163.9z"/>
<path class="st0" d="M239.2,229.4c-14.1,0-25.6,11.5-25.6,25.6c0,14.1,11.5,25.6,25.6,25.6c14.1,0,25.6-11.5,25.6-25.6
	C264.8,240.9,253.3,229.4,239.2,229.4z M239.2,265.6c-5.9,0-10.6-4.8-10.6-10.6c0-5.9,4.8-10.6,10.6-10.6s10.6,4.8,10.6,10.6
	C249.8,260.9,245.1,265.6,239.2,265.6z"/>
<path class="st0" d="M287.3,264.1H324c4.1,0,7.5-3.4,7.5-7.5c0-4.1-3.4-7.5-7.5-7.5h-36.7c-4.1,0-7.5,3.4-7.5,7.5
	C279.9,260.7,283.2,264.1,287.3,264.1z"/>
<path class="st0" d="M415.2,267.1H287.3c-4.1,0-7.5,3.3-7.5,7.5c0,4.1,3.4,7.5,7.5,7.5h127.9c4.1,0,7.5-3.4,7.5-7.5
	C422.7,270.4,419.3,267.1,415.2,267.1z"/>
<path class="st0" d="M287.4,242.9L287.4,242.9c4.2,0,7.5-3.4,7.5-7.5c0-4.1-3.4-7.4-7.5-7.4c0,0,0,0-0.1,0h-0.1
	c-4.1,0-7.4,3.4-7.4,7.5C279.9,239.6,283.3,242.9,287.4,242.9z"/>
<path class="st0" d="M239.2,308.5c-14.1,0-25.6,11.5-25.6,25.6c0,14.1,11.5,25.6,25.6,25.6c14.1,0,25.6-11.5,25.6-25.6
	C264.8,319.9,253.3,308.5,239.2,308.5z M239.2,344.7c-5.9,0-10.6-4.8-10.6-10.6c0-5.9,4.8-10.6,10.6-10.6s10.6,4.8,10.6,10.6
	C249.8,339.9,245.1,344.7,239.2,344.7z"/>
<path class="st0" d="M287.3,343.2H324c4.1,0,7.5-3.4,7.5-7.5c0-4.1-3.4-7.5-7.5-7.5h-36.7c-4.1,0-7.5,3.4-7.5,7.5
	C279.9,339.8,283.2,343.2,287.3,343.2z"/>
<path class="st0" d="M287.3,361.1h127.9c4.1,0,7.5-3.4,7.5-7.5c0-4.1-3.4-7.5-7.5-7.5H287.3c-4.1,0-7.5,3.3-7.5,7.5
	C279.9,357.8,283.2,361.1,287.3,361.1z"/>
<path class="st0" d="M287.4,322L287.4,322c4.2,0,7.5-3.4,7.5-7.5c0-4.1-3.4-7.4-7.5-7.4c0,0,0,0-0.1,0h-0.1c-4.1,0-7.4,3.4-7.4,7.5
	C279.9,318.7,283.3,322,287.4,322z"/>
<path class="st0" d="M433.9,98.1V54.7c0-4.1-3.4-7.5-7.5-7.5H224.3c-4.1,0-7.5,3.3-7.5,7.5v43.4c0,4.1,3.3,7.5,7.5,7.5h202.1
	C430.5,105.6,433.9,102.2,433.9,98.1z M418.9,90.6H231.8V62.2h187.1V90.6z"/>
</svg>
