<svg xmlns="http://www.w3.org/2000/svg" width="187" height="187" viewBox="0 0 187 187"><defs><style>.a{fill:#fff;stroke:#b28146;stroke-width:2px;}.b{fill:#b28146;}.c{stroke:none;}.d{fill:none;}</style></defs><g class="a"><circle class="c" cx="93.5" cy="93.5" r="93.5"/><circle class="d" cx="93.5" cy="93.5" r="92.5"/></g><path class="b" d="M11.2,22.4H5.6a5.6,5.6,0,0,0-5.6,5.6V84.018a5.6,5.6,0,0,0,5.6,5.6h5.6a5.6,5.6,0,0,0,5.6-5.6V28.006A5.6,5.6,0,0,0,11.2,22.4Zm72.816,5.6V13.522a5.6,5.6,0,0,0-1.64-3.961L74.456,1.64A5.6,5.6,0,0,0,70.495,0H28.006a5.6,5.6,0,0,0-5.6,5.6V84.018a5.6,5.6,0,0,0,5.6,5.6H84.018a5.6,5.6,0,0,0,5.6-5.6V33.607A5.6,5.6,0,0,0,84.018,28.006ZM50.411,75.616a2.8,2.8,0,0,1-2.8,2.8h-5.6a2.8,2.8,0,0,1-2.8-2.8v-5.6a2.8,2.8,0,0,1,2.8-2.8h5.6a2.8,2.8,0,0,1,2.8,2.8Zm0-22.4a2.8,2.8,0,0,1-2.8,2.8h-5.6a2.8,2.8,0,0,1-2.8-2.8v-5.6a2.8,2.8,0,0,1,2.8-2.8h5.6a2.8,2.8,0,0,1,2.8,2.8Zm22.4,22.4a2.8,2.8,0,0,1-2.8,2.8h-5.6a2.8,2.8,0,0,1-2.8-2.8v-5.6a2.8,2.8,0,0,1,2.8-2.8h5.6a2.8,2.8,0,0,1,2.8,2.8Zm0-22.4a2.8,2.8,0,0,1-2.8,2.8h-5.6a2.8,2.8,0,0,1-2.8-2.8v-5.6a2.8,2.8,0,0,1,2.8-2.8h5.6a2.8,2.8,0,0,1,2.8,2.8Zm2.8-19.6H30.807V8.4H67.215V14a2.8,2.8,0,0,0,2.8,2.8h5.6Z" transform="translate(48.545 48.544)"/></svg>