<svg xmlns="http://www.w3.org/2000/svg" width="183" height="183" viewBox="0 0 183 183"><defs><style>.a{fill:#fff;stroke:#b28146;stroke-width:2px;}.b{fill:#b28146;}.c{stroke:none;}.d{fill:none;}</style></defs><g class="a"><circle class="c" cx="91.5" cy="91.5" r="91.5"/><circle class="d" cx="91.5" cy="91.5" r="90.5"/></g><path class="b" d="M85.461,62.164,66.218,53.916A4.124,4.124,0,0,0,61.407,55.1L52.884,65.514A63.687,63.687,0,0,1,22.44,35.069l10.412-8.522a4.113,4.113,0,0,0,1.186-4.811L25.79,2.492A4.151,4.151,0,0,0,21.065.1L3.2,4.228A4.124,4.124,0,0,0,0,8.247,79.715,79.715,0,0,0,79.724,87.971a4.124,4.124,0,0,0,4.021-3.2l4.124-17.869A4.174,4.174,0,0,0,85.461,62.164Z" transform="translate(47.65 47.65)"/></svg>