<svg xmlns="http://www.w3.org/2000/svg" width="1094.754" height="318" viewBox="0 0 1094.754 318"><defs><style>.a,.h{fill:#e0ff85;}.a,.d,.e,.f{stroke:#707070;}.b,.g,.k{fill:#333;font-weight:700;letter-spacing:0.005em;}.b,.g{font-size:16px;}.b{font-family:YuGothicUI-Bold, Yu Gothic UI;}.c,.g,.k{font-family:SegoeUI-Bold, Segoe UI;}.d,.j{fill:rgba(204,236,255,0.76);}.e,.l{fill:rgba(255,255,153,0.74);}.f,.m{fill:rgba(255,204,0,0.64);}.i{fill:rgba(255,204,204,0.88);}.k{font-size:20px;}</style></defs><g transform="translate(-412.294 -1284)"><g transform="translate(0 -17)"><g transform="translate(8.667 -9)"><g transform="translate(405 1340)"><path class="a" d="M6358,1148h143.5l33.17,30.891L6501.5,1213H6358l36.775-34.109Z" transform="translate(-6358 -1148)"/><text class="b" transform="translate(40.333 39)"><tspan x="0" y="0">選題活性篩選</tspan></text></g><g transform="translate(558 1340)"><path class="a" d="M6358,1148h143.5l33.17,30.891L6501.5,1213H6358l36.775-34.109Z" transform="translate(-6358 -1148)"/><text class="b" transform="translate(56.333 27)"><tspan x="0" y="0">動物模式</tspan><tspan class="c" y="0"></tspan><tspan x="0" y="24">作用機轉</tspan></text></g><g transform="translate(711 1340)"><path class="d" d="M6358,1148h143.5l33.17,30.891L6501.5,1213H6358l36.775-34.109Z" transform="translate(-6358 -1148)"/><text class="b" transform="translate(88.333 27)"><tspan x="-24.08" y="0">臨床前</tspan><tspan class="c" y="0"></tspan><tspan x="-16.04" y="24">研究</tspan></text></g><g transform="translate(865 1340)"><path class="e" d="M6358,1148h143.5l33.17,30.891L6501.5,1213H6358l36.775-34.109Z" transform="translate(-6358 -1148)"/><text class="b" transform="translate(88.333 27)"><tspan x="-32.12" y="0">臨床試驗</tspan><tspan class="c" y="0"></tspan><tspan x="-24.08" y="24">第一期</tspan></text></g><g transform="translate(1018 1340)"><path class="e" d="M6358,1148h143.5l33.17,30.891L6501.5,1213H6358l36.775-34.109Z" transform="translate(-6358 -1148)"/><text class="b" transform="translate(88.333 27)"><tspan x="-32.12" y="0">臨床試驗</tspan><tspan class="c" y="0"></tspan><tspan x="-24.08" y="24">第二期</tspan></text></g><g transform="translate(1169 1340)"><path class="e" d="M6358,1148h143.5l33.17,30.891L6501.5,1213H6358l36.775-34.109Z" transform="translate(-6358 -1148)"/><text class="b" transform="translate(88.333 27)"><tspan x="-32.12" y="0">臨床試驗</tspan><tspan class="c" y="0"></tspan><tspan x="-24.08" y="24">第三期</tspan></text></g><g transform="translate(1321 1340)"><path class="f" d="M6358,1148h143.5l33.17,30.891L6501.5,1213H6358l36.775-34.109Z" transform="translate(-6358 -1148)"/><text class="g" transform="translate(70.333 39)"><tspan x="0" y="0">NDA</tspan></text></g></g><text class="g" transform="translate(496 1318)"><tspan x="-21.355" y="0">Leads</tspan></text><text class="g" transform="translate(651 1318)"><tspan x="-41.911" y="0">Candidates</tspan></text><text class="g" transform="translate(803 1318)"><tspan x="-14.834" y="0">IND</tspan></text><text class="g" transform="translate(960 1318)"><tspan x="-26.865" y="0">Phase I</tspan></text><text class="g" transform="translate(1112 1318)"><tspan x="-29.44" y="0">Phase II</tspan></text><text class="g" transform="translate(1264 1318)"><tspan x="-32.015" y="0">Phase III</tspan></text><text class="g" transform="translate(1416 1318)"><tspan x="-17.803" y="0">NDA</tspan></text><path class="h" d="M0,0H304V33H0Z" transform="translate(414 1411)"/><path class="i" d="M0,0H783.333V33H0Z" transform="translate(723 1411)"/><text class="b" transform="translate(542 1434)"><tspan x="0" y="0">未規範</tspan></text><text class="b" transform="translate(1008 1434)"><tspan x="0" y="0">美國聯邦法規</tspan><tspan class="c" y="0">21</tspan><tspan y="0">章第</tspan><tspan class="c" y="0">11</tspan><tspan y="0">條規範</tspan></text></g><g transform="translate(7 -10)"><circle class="j" cx="55.5" cy="55.5" r="55.5" transform="translate(750 1498)"/><text class="k" transform="translate(787 1562)"><tspan x="0" y="0">GLP</tspan></text></g><g transform="translate(310 -7)"><circle class="l" cx="55.5" cy="55.5" r="55.5" transform="translate(750 1498)"/><text class="k" transform="translate(786 1562)"><tspan x="0" y="0">GCP</tspan></text></g><g transform="translate(620 -10)"><circle class="m" cx="55.5" cy="55.5" r="55.5" transform="translate(750 1498)"/><text class="k" transform="translate(783 1562)"><tspan x="0" y="0">GMP</tspan></text></g><path class="l" d="M6807,2051.5h62.5V2032l21,38-21,36.5V2088H6807Z" transform="translate(-5891 -525.75)"/><path class="m" d="M6807,2051.5h62.5V2032l21,38-21,36.5V2088H6807Z" transform="translate(-5572 -525.75)"/><path class="j" d="M6807,2051.5h36.49V2032l15.761,37.25-15.761,37.25V2088H6807Z" transform="translate(2881.75 -5375.251) rotate(90)"/><path class="l" d="M6807,2051.5h36.49V2032l15.761,37.25-15.761,37.25V2088H6807Z" transform="translate(3184.75 -5375.251) rotate(90)"/><path class="m" d="M6807,2051.5h36.49V2032l15.761,37.25-15.761,37.25V2088H6807Z" transform="translate(3494.75 -5375.251) rotate(90)"/></g></svg>