<svg xmlns="http://www.w3.org/2000/svg" xmlns:xlink="http://www.w3.org/1999/xlink" width="1116" height="326.5" viewBox="0 0 1116 326.5"><defs><style>.a,.j{fill:#333;}.a,.e,.g,.i,.j{font-size:24px;}.a{font-family:SegoeUISymbol, Segoe UI Symbol;}.b,.e,.g,.i,.j{font-family:YuGothicUI-Bold, Yu Gothic UI;font-weight:700;}.c{fill:url(#a);}.d{fill:#fceadc;}.e{fill:#cb9164;}.f{fill:#b9cde5;}.g{fill:#1253a2;}.h{fill:#e6e0ec;}.i{fill:#b19bc8;}</style><linearGradient id="a" y1="1" x2="1" y2="1" gradientUnits="objectBoundingBox"><stop offset="0" stop-color="#b9cde5"/><stop offset="0.464" stop-color="#fdeada"/><stop offset="1" stop-color="#e6e0ec"/></linearGradient></defs><g transform="translate(-390 -1050.5)"><text class="a" transform="translate(509 1219)"><tspan x="-118.236" y="0">★</tspan><tspan class="b" y="0">高風險族群早期篩檢</tspan></text><text class="a" transform="translate(509 1257)"><tspan x="-82.236" y="0">★</tspan><tspan class="b" y="0">遺傳特徵分析</tspan></text><text class="a" transform="translate(509 1295)"><tspan x="-82.236" y="0">★</tspan><tspan class="b" y="0">健康潛能分析</tspan></text><text class="a" transform="translate(878 1222)"><tspan x="0" y="0">★</tspan><tspan class="b" y="0">疾病風險評估</tspan></text><text class="a" transform="translate(878 1260)"><tspan x="0" y="0">★</tspan><tspan class="b" y="0">健康狀態追蹤</tspan></text><text class="a" transform="translate(1305 1219)"><tspan x="0" y="0">★</tspan><tspan class="b" y="0">新生兒基因檢測</tspan></text><text class="a" transform="translate(1293 1257)"><tspan x="0" y="0">★</tspan><tspan class="b" y="0">孕婦產前基因檢測</tspan></text><text class="a" transform="translate(1317 1295)"><tspan x="0" y="0">★</tspan><tspan class="b" y="0">腫瘤標記檢測</tspan></text><text class="a" transform="translate(1329 1333)"><tspan x="0" y="0">★</tspan><tspan class="b" y="0">適藥性檢測</tspan></text><g transform="translate(21)"><g transform="translate(436 1051)"><g transform="translate(71.433 35)"><rect class="c" width="854" height="38"/></g><g transform="translate(448.5 -0.5)"><path class="d" d="M54.5,0A54.5,54.5,0,1,1,0,54.5,54.5,54.5,0,0,1,54.5,0Z"/><text class="e" transform="translate(18.129 65)"><tspan x="0" y="0">亞健康</tspan></text></g><g transform="translate(0 1)"><path class="f" d="M54.5,0A54.5,54.5,0,1,1,0,54.5,54.5,54.5,0,0,1,54.5,0Z"/><text class="g" transform="translate(31 65)"><tspan x="0" y="0">健康</tspan></text></g><g transform="translate(897 2)"><path class="h" d="M54.5,0A54.5,54.5,0,1,1,0,54.5,54.5,54.5,0,0,1,54.5,0Z"/><text class="i" transform="translate(30 63)"><tspan x="0" y="0">疾病</tspan></text></g></g><text class="j" transform="translate(588 1117)"><tspan x="0" y="0">居家檢測及數據管理</tspan></text><text class="j" transform="translate(1056 1117)"><tspan x="0" y="0">醫療體系檢測及治療</tspan></text></g><text class="a" transform="translate(1341 1371)"><tspan x="0" y="0">★</tspan><tspan class="b" y="0">治療監測</tspan></text></g></svg>